<?xml version="1.0" encoding="UTF-8" standalone="no"?>
<svg
   viewBox="0 0 128 128"
   version="1.1"
   id="svg3"
   sodipodi:docname="bash-original.svg"
   inkscape:version="1.3.2 (091e20ef0f, 2023-11-25)"
   xmlns:inkscape="http://www.inkscape.org/namespaces/inkscape"
   xmlns:sodipodi="http://sodipodi.sourceforge.net/DTD/sodipodi-0.dtd"
   xmlns="http://www.w3.org/2000/svg"
   xmlns:svg="http://www.w3.org/2000/svg">
  <defs
     id="defs3" />
  <sodipodi:namedview
     id="namedview3"
     pagecolor="#ffffff"
     bordercolor="#000000"
     borderopacity="0.25"
     inkscape:showpageshadow="2"
     inkscape:pageopacity="0.0"
     inkscape:pagecheckerboard="0"
     inkscape:deskcolor="#d1d1d1"
     inkscape:zoom="6.1953125"
     inkscape:cx="63.919294"
     inkscape:cy="64"
     inkscape:window-width="1920"
     inkscape:window-height="1000"
     inkscape:window-x="0"
     inkscape:window-y="0"
     inkscape:window-maximized="1"
     inkscape:current-layer="svg3" />
  <path
     fill="none"
     d="M4.24 4.24h119.53v119.53H4.24z"
     id="path1" />
  <path
     fill="#293138"
     d="M109.01 28.64L71.28 6.24c-2.25-1.33-4.77-2-7.28-2s-5.03.67-7.28 2.01l-37.74 22.4c-4.5 2.67-7.28 7.61-7.28 12.96v44.8c0 5.35 2.77 10.29 7.28 12.96l37.73 22.4c2.25 1.34 4.76 2 7.28 2 2.51 0 5.03-.67 7.28-2l37.74-22.4c4.5-2.67 7.28-7.62 7.28-12.96V41.6c0-5.34-2.77-10.29-7.28-12.96zM79.79 98.59l.06 3.22c0 .39-.25.83-.55.99l-1.91 1.1c-.3.15-.56-.03-.56-.42l-.03-3.17c-1.63.68-3.29.84-4.34.42-.2-.08-.29-.37-.21-.71l.69-2.91c.06-.23.18-.46.34-.6.06-.06.12-.1.18-.13.11-.06.22-.07.31-.03 1.14.38 2.59.2 3.99-.5 1.78-.9 2.97-2.72 2.95-4.52-.02-1.64-.9-2.31-3.05-2.33-2.74.01-5.3-.53-5.34-4.57-.03-3.32 1.69-6.78 4.43-8.96l-.03-3.25c0-.4.24-.84.55-1l1.85-1.18c.3-.15.56.04.56.43l.03 3.25c1.36-.54 2.54-.69 3.61-.44.23.06.34.38.24.75l-.72 2.88c-.06.22-.18.44-.33.58a.77.77 0 01-.19.14c-.1.05-.19.06-.28.05-.49-.11-1.65-.36-3.48.56-1.92.97-2.59 2.64-2.58 3.88.02 1.48.77 1.93 3.39 1.97 3.49.06 4.99 1.58 5.03 5.09.05 3.44-1.79 7.15-4.61 9.41zm26.34-60.5l-35.7 22.05c-4.45 2.6-7.73 5.52-7.74 10.89v43.99c0 3.21 1.3 5.29 3.29 5.9-.65.11-1.32.19-1.98.19-2.09 0-4.15-.57-5.96-1.64l-37.73-22.4c-3.69-2.19-5.98-6.28-5.98-10.67V41.6c0-4.39 2.29-8.48 5.98-10.67l37.74-22.4c1.81-1.07 3.87-1.64 5.96-1.64s4.15.57 5.96 1.64l37.74 22.4c3.11 1.85 5.21 5.04 5.8 8.63-1.27-2.67-4.09-3.39-7.38-1.47z"
     id="path2"
     style="fill:#7a8c9f;fill-opacity:1" />
  <path
     fill="#4FA847"
     d="M99.12 90.73l-9.4 5.62c-.25.15-.43.31-.43.61v2.46c0 .3.2.43.45.28l9.54-5.8c.25-.15.29-.42.29-.72v-2.17c0-.3-.2-.42-.45-.28z"
     id="path3"
     style="fill:#11f901;fill-opacity:1" />
  <path
     style="fill:#e6e6e6;fill-opacity:1;stroke-width:0.161412"
     d="m 76.930258,103.53283 c -0.05389,-0.14043 -0.09798,-0.94719 -0.09798,-1.79281 0,-1.3986 -0.02552,-1.52754 -0.282471,-1.4274 -1.46005,0.56901 -3.671698,0.71581 -4.114406,0.2731 -0.252152,-0.25215 0.603646,-3.838487 0.964105,-4.040211 0.138365,-0.07743 0.529136,-0.07508 0.887059,0.0053 1.538542,0.345687 3.840823,-0.504514 5.101526,-1.883923 0.942402,-1.031138 1.318084,-2.001525 1.318084,-3.404606 0,-0.838244 -0.06759,-1.088373 -0.401278,-1.484936 -0.475996,-0.565687 -1.400964,-0.838087 -2.858093,-0.841696 -2.284985,-0.0057 -3.855991,-0.718077 -4.50922,-2.044836 -0.502739,-1.021101 -0.616268,-3.388357 -0.235646,-4.913574 0.455234,-1.824197 1.57316,-3.843758 2.920544,-5.276036 l 1.209796,-1.286021 v -1.699453 c 0,-0.934699 0.04687,-1.821585 0.104148,-1.970857 0.132076,-0.344185 2.282015,-1.732645 2.486857,-1.606046 0.08415,0.05201 0.153006,0.889267 0.153006,1.860573 0,0.971305 0.05448,1.765223 0.121059,1.764263 0.06658,-9.62e-4 0.477622,-0.109915 0.913421,-0.242119 1.102689,-0.334512 2.656469,-0.322894 2.788375,0.02085 0.118273,0.308212 -0.574352,3.36186 -0.847155,3.734939 -0.143154,0.195775 -0.492948,0.26009 -1.464356,0.269242 -1.102761,0.01039 -1.422766,0.08415 -2.353787,0.542547 -1.320764,0.650288 -2.291469,1.695821 -2.628671,2.831303 -0.299779,1.009464 -0.302862,1.424452 -0.01569,2.111752 0.298047,0.713327 1.1383,1.011415 3.229181,1.145582 3.805695,0.244204 5.060109,1.663054 4.903981,5.546825 -0.117411,2.920658 -1.208221,5.405583 -3.373533,7.685094 l -1.111414,1.17003 v 1.727044 c 0,0.94987 -0.07357,1.8645 -0.163484,2.03252 -0.160511,0.29991 -2.045461,1.44884 -2.377003,1.44884 -0.09294,0 -0.213073,-0.1149 -0.26696,-0.25532 z"
     id="path4" />
</svg>
